<?xml version="1.0" encoding="utf-8"?>
<!-- Svg Vector Icons : http://www.onlinewebfonts.com/icon -->
<!DOCTYPE svg PUBLIC "-//W3C//DTD SVG 1.1//EN" "http://www.w3.org/Graphics/SVG/1.1/DTD/svg11.dtd">
<svg version="1.1" xmlns="http://www.w3.org/2000/svg" xmlns:xlink="http://www.w3.org/1999/xlink" x="0px" y="0px" viewBox="0 0 1000 1000" enable-background="new 0 0 1000 1000" xml:space="preserve">
<metadata> Svg Vector Icons : http://www.onlinewebfonts.com/icon </metadata>
<g><path d="M500,990c-80,0-155.2-19.7-221.9-53.7L224.4,990V775.6h214.4l-67.9,67.9c40.2,15.2,83.6,23.9,129.2,23.9c203,0,367.5-164.5,367.5-367.5c0-48.5-9.6-94.6-26.7-137l92.1-92.2c36.3,68.4,57,146.3,57,229.1C990,770.6,770.6,990,500,990z M469.4,806.3v-64.3c-69.9-14.2-122.5-76-122.5-150h61.3c0,50.7,41.1,91.9,91.9,91.9c50.7,0,91.9-41.1,91.9-91.9S550.7,500,500,500c-67.7,0-122.5-54.8-122.5-122.5c0-57,39.1-104.5,91.9-118.2v-65.6h61.3v65.6c52.7,13.7,91.9,61.1,91.9,118.2h-61.3c0-33.8-27.4-61.3-61.2-61.3s-61.3,27.4-61.3,61.3c0,33.8,27.4,61.3,61.3,61.3c84.6,0,153.1,68.5,153.1,153.1c0,74.1-52.6,135.9-122.5,150v64.3H469.4z M650.7,165.6c-46.1-20.8-96.8-33.1-150.7-33.1C297,132.5,132.5,297,132.5,500c0,64.8,16.9,125.6,46.4,178.5l-89.1,89.1C39.5,690.6,10,598.8,10,500C10,229.4,229.4,10,500,10c88.1,0,170.5,23.6,241.9,64.3L806.3,10v214.4H591.9L650.7,165.6z"/></g>
</svg>